#VRML V2.0 utf8
DEF TXFM_1 Transform {
  center 0 0 0
  rotation 0 0 1 0
  scale 0.00254 0.00254 0.00254
  scaleOrientation 0 0 1 0
  translation 0 0 0
 children [
DEF TXFM_2 Transform {
  center 0 0 0
  rotation 0 0 1 0
  scale 1 1 1
  scaleOrientation 0 0 1 0
  translation 0 0 0
 children [
DEF SHAPE_1 Shape {
 appearance DEF APP_1 Appearance {
  material Material {
   ambientIntensity 1
   diffuseColor 0 0 0
   emissiveColor 0 0 0
   shininess 0.0099999998
   specularColor 0.1 0.1 0.1
   transparency 0
} }
 geometry DEF FACE_1 IndexedFaceSet {
  coord DEF COORD_1 Coordinate { point [
  51.582677 -23.287402 0.31003937,51.240157 -23.287402 0.31003937,
  50.846457 -23.287402 0.31003937,50.846457 -32.106299 0.31003937,
  51.240157 -32.106299 0.31003937,56.948819 -32.106299 0.31003937,
  56.974624 -32.105457 0.31003937,57.024475 -32.0921 0.31003937,
  57.069171 -32.066294 0.31003937,57.105665 -32.029801 0.31003937,
  57.13147 -31.985105 0.31003937,57.144827 -31.935254 0.31003937,
  57.145669 -31.909449 0.31003937,57.145669 -28.484252 0.31003937,
  57.144827 -28.458447 0.31003937,57.13147 -28.408596 0.31003937,
  57.105665 -28.3639 0.31003937,57.069171 -28.327406 0.31003937,
  57.024475 -28.301601 0.31003937,56.974624 -28.288244 0.31003937,
  56.948819 -28.287402 0.31003937,55.137795 -28.287402 0.31003937,
  54.625984 -27.775591 0.31003937,54.035433 -27.775591 0.31003937,
  54.035433 -28.011811 0.31003937,53.562992 -28.011811 0.31003937,
  53.326772 -27.775591 0.31003937,51.240157 -27.775591 0.31003937,
  51.240157 -26.043307 0.31003937,54.338583 -26.043307 0.31003937,
  54.338583 -23.287402 0.31003937,52.257874 -24.665354 0.31003937,
  52.298332 -24.46196 0.31003937,52.413546 -24.28953 0.31003937,
  52.585975 -24.174316 0.31003937,52.78937 -24.133858 0.31003937,
  52.992765 -24.174316 0.31003937,53.165195 -24.28953 0.31003937,
  53.280408 -24.46196 0.31003937,53.320866 -24.665354 0.31003937,
  53.280408 -24.868749 0.31003937,53.165195 -25.041179 0.31003937,
  52.992765 -25.156393 0.31003937,52.78937 -25.19685 0.31003937,
  52.585975 -25.156393 0.31003937,52.413546 -25.041179 0.31003937,
  52.298332 -24.868749 0.31003937,51.582677 -23.287402 -0.31003937,
  51.240157 -23.287402 -0.31003937,50.846457 -23.287402 -0.31003937,
  50.846457 -32.106299 -0.31003937,51.240157 -32.106299 -0.31003937,
  56.948819 -32.106299 -0.31003937,56.974624 -32.105457 -0.31003937,
  57.024475 -32.0921 -0.31003937,57.069171 -32.066294 -0.31003937,
  57.105665 -32.029801 -0.31003937,57.13147 -31.985105 -0.31003937,
  57.144827 -31.935254 -0.31003937,57.145669 -31.909449 -0.31003937,
  57.145669 -28.484252 -0.31003937,57.144827 -28.458447 -0.31003937,
  57.13147 -28.408596 -0.31003937,57.105665 -28.3639 -0.31003937,
  57.069171 -28.327406 -0.31003937,57.024475 -28.301601 -0.31003937,
  56.974624 -28.288244 -0.31003937,56.948819 -28.287402 -0.31003937,
  55.137795 -28.287402 -0.31003937,54.625984 -27.775591 -0.31003937,
  54.035433 -27.775591 -0.31003937,54.035433 -28.011811 -0.31003937,
  53.562992 -28.011811 -0.31003937,53.326772 -27.775591 -0.31003937,
  51.240157 -27.775591 -0.31003937,51.240157 -26.043307 -0.31003937,
  54.338583 -26.043307 -0.31003937,54.338583 -23.287402 -0.31003937,
  52.257874 -24.665354 -0.31003937,52.298332 -24.46196 -0.31003937,
  52.413546 -24.28953 -0.31003937,52.585975 -24.174316 -0.31003937,
  52.78937 -24.133858 -0.31003937,52.992765 -24.174316 -0.31003937,
  53.165195 -24.28953 -0.31003937,53.280408 -24.46196 -0.31003937,
  53.320866 -24.665354 -0.31003937,53.280408 -24.868749 -0.31003937,
  53.165195 -25.041179 -0.31003937,52.992765 -25.156393 -0.31003937,
  52.78937 -25.19685 -0.31003937,52.585975 -25.156393 -0.31003937,
  52.413546 -25.041179 -0.31003937,52.298332 -24.868749 -0.31003937] }
 coordIndex [
  21,5,20,-1,20,5,6,-1,20,6,19,-1,19,6,7,-1,19,7,18,-1,18,7,8,-1,18,8,17,-1,17,8,9,-1,
  17,9,16,-1,16,9,10,-1,16,10,15,-1,15,10,11,-1,15,11,14,-1,14,11,12,-1,14,12,13,-1,5,21,22,-1,
  5,22,23,-1,5,23,24,-1,5,24,25,-1,5,25,26,-1,5,26,27,-1,5,27,4,-1,30,0,34,-1,30,34,35,-1,
  30,35,36,-1,30,36,37,-1,30,37,38,-1,30,38,39,-1,30,39,29,-1,42,43,29,-1,29,43,44,-1,29,44,28,-1,
  28,44,45,-1,28,45,1,-1,1,45,46,-1,1,46,0,-1,0,46,31,-1,0,31,32,-1,33,34,0,-1,33,0,32,-1,
  29,39,40,-1,29,40,41,-1,29,41,42,-1,1,2,4,-1,1,4,27,-1,1,27,28,-1,4,2,3,-1,52,68,67,-1,
  52,67,53,-1,53,67,66,-1,53,66,54,-1,54,66,65,-1,54,65,55,-1,55,65,64,-1,55,64,56,-1,56,64,63,-1,
  56,63,57,-1,57,63,62,-1,57,62,58,-1,58,62,61,-1,58,61,59,-1,59,61,60,-1,68,52,69,-1,69,52,70,-1,
  70,52,71,-1,71,52,72,-1,72,52,73,-1,73,52,74,-1,74,52,51,-1,47,77,81,-1,81,77,82,-1,82,77,83,-1,
  83,77,84,-1,84,77,85,-1,85,77,86,-1,86,77,76,-1,90,89,76,-1,90,76,91,-1,91,76,75,-1,91,75,92,-1,
  92,75,48,-1,92,48,93,-1,93,48,47,-1,93,47,78,-1,78,47,79,-1,81,80,47,-1,47,80,79,-1,86,76,87,-1,
  87,76,88,-1,88,76,89,-1,49,48,51,-1,51,48,74,-1,74,48,75,-1,49,51,50,-1]
  normalPerVertex TRUE
  normal DEF NORM_1 Normal { vector [
  0 0 1,0 0 1,
  0 0 1,0 0 1,
  0 0 1,0 0 1,
  0 0 1,0 0 1,
  0 0 1,0 0 1,
  0 0 1,0 0 1,
  0 0 1,0 0 1,
  0 0 1,0 0 1,
  0 0 1,0 0 1,
  0 0 1,0 0 1,
  0 0 1,0 0 1,
  0 0 1,0 0 1,
  0 0 1,0 0 1,
  0 0 1,0 0 1,
  0 0 1,0 0 1,
  0 0 1,0 0 1,
  0 0 1,0 0 1,
  0 0 1,0 0 1,
  0 0 1,0 0 1,
  0 0 1,0 0 1,
  0 0 1,0 0 1,
  0 0 1,0 0 1,
  0 0 1,0 0 1,
  0 0 1,0 0 -1,
  0 0 -1,0 0 -1,
  0 0 -1,0 0 -1,
  0 0 -1,0 0 -1,
  0 0 -1,0 0 -1,
  0 0 -1,0 0 -1,
  0 0 -1,0 0 -1,
  0 0 -1,0 0 -1,
  0 0 -1,0 0 -1,
  0 0 -1,0 0 -1,
  0 0 -1,0 0 -1,
  0 0 -1,0 0 -1,
  0 0 -1,0 0 -1,
  0 0 -1,0 0 -1,
  0 0 -1,0 0 -1,
  0 0 -1,0 0 -1,
  0 0 -1,0 0 -1,
  0 0 -1,0 0 -1,
  0 0 -1,0 0 -1,
  0 0 -1,0 0 -1,
  0 0 -1,0 0 -1,
  0 0 -1,0 0 -1,
  0 0 -1,0 0 -1,
  0 0 -1,0 0 -1] }
}
}
DEF SHAPE_2 Shape {
 appearance USE APP_1
 geometry DEF FACE_2 IndexedFaceSet {
  coord DEF COORD_2 Coordinate { point [
  51.240157 -23.287402 0.31003937,51.582677 -23.287402 0.31003937,
  51.240157 -23.287402 -0.31003937,51.240157 -23.287402 -0.31003937,
  51.582677 -23.287402 0.31003937,51.582677 -23.287402 -0.31003937,
  50.846457 -23.287402 0.31003937,51.240157 -23.287402 0.31003937,
  50.846457 -23.287402 -0.31003937,50.846457 -23.287402 -0.31003937,
  51.240157 -23.287402 0.31003937,51.240157 -23.287402 -0.31003937,
  50.846457 -32.106299 0.31003937,50.846457 -23.287402 0.31003937,
  50.846457 -32.106299 -0.31003937,50.846457 -32.106299 -0.31003937,
  50.846457 -23.287402 0.31003937,50.846457 -23.287402 -0.31003937,
  51.240157 -32.106299 0.31003937,50.846457 -32.106299 0.31003937,
  51.240157 -32.106299 -0.31003937,51.240157 -32.106299 -0.31003937,
  50.846457 -32.106299 0.31003937,50.846457 -32.106299 -0.31003937,
  56.948819 -32.106299 0.31003937,51.240157 -32.106299 0.31003937,
  56.948819 -32.106299 -0.31003937,56.948819 -32.106299 -0.31003937,
  51.240157 -32.106299 0.31003937,51.240157 -32.106299 -0.31003937,
  56.974624 -32.105457 0.31003937,56.948819 -32.106299 0.31003937,
  56.974624 -32.105457 -0.31003937,56.974624 -32.105457 -0.31003937,
  56.948819 -32.106299 0.31003937,56.948819 -32.106299 -0.31003937,
  57.024475 -32.0921 0.31003937,56.974624 -32.105457 0.31003937,
  57.024475 -32.0921 -0.31003937,57.024475 -32.0921 -0.31003937,
  56.974624 -32.105457 0.31003937,56.974624 -32.105457 -0.31003937,
  57.069171 -32.066294 0.31003937,57.024475 -32.0921 0.31003937,
  57.069171 -32.066294 -0.31003937,57.069171 -32.066294 -0.31003937,
  57.024475 -32.0921 0.31003937,57.024475 -32.0921 -0.31003937,
  57.105665 -32.029801 0.31003937,57.069171 -32.066294 0.31003937,
  57.105665 -32.029801 -0.31003937,57.105665 -32.029801 -0.31003937,
  57.069171 -32.066294 0.31003937,57.069171 -32.066294 -0.31003937,
  57.13147 -31.985105 0.31003937,57.105665 -32.029801 0.31003937,
  57.13147 -31.985105 -0.31003937,57.13147 -31.985105 -0.31003937,
  57.105665 -32.029801 0.31003937,57.105665 -32.029801 -0.31003937,
  57.144827 -31.935254 0.31003937,57.13147 -31.985105 0.31003937,
  57.144827 -31.935254 -0.31003937,57.144827 -31.935254 -0.31003937,
  57.13147 -31.985105 0.31003937,57.13147 -31.985105 -0.31003937,
  57.145669 -31.909449 0.31003937,57.144827 -31.935254 0.31003937,
  57.145669 -31.909449 -0.31003937,57.145669 -31.909449 -0.31003937,
  57.144827 -31.935254 0.31003937,57.144827 -31.935254 -0.31003937,
  57.145669 -28.484252 0.31003937,57.145669 -31.909449 0.31003937,
  57.145669 -28.484252 -0.31003937,57.145669 -28.484252 -0.31003937,
  57.145669 -31.909449 0.31003937,57.145669 -31.909449 -0.31003937,
  57.144827 -28.458447 0.31003937,57.145669 -28.484252 0.31003937,
  57.144827 -28.458447 -0.31003937,57.144827 -28.458447 -0.31003937,
  57.145669 -28.484252 0.31003937,57.145669 -28.484252 -0.31003937,
  57.13147 -28.408596 0.31003937,57.144827 -28.458447 0.31003937,
  57.13147 -28.408596 -0.31003937,57.13147 -28.408596 -0.31003937,
  57.144827 -28.458447 0.31003937,57.144827 -28.458447 -0.31003937,
  57.105665 -28.3639 0.31003937,57.13147 -28.408596 0.31003937,
  57.105665 -28.3639 -0.31003937,57.105665 -28.3639 -0.31003937,
  57.13147 -28.408596 0.31003937,57.13147 -28.408596 -0.31003937,
  57.069171 -28.327406 0.31003937,57.105665 -28.3639 0.31003937,
  57.069171 -28.327406 -0.31003937,57.069171 -28.327406 -0.31003937,
  57.105665 -28.3639 0.31003937,57.105665 -28.3639 -0.31003937,
  57.024475 -28.301601 0.31003937,57.069171 -28.327406 0.31003937,
  57.024475 -28.301601 -0.31003937,57.024475 -28.301601 -0.31003937,
  57.069171 -28.327406 0.31003937,57.069171 -28.327406 -0.31003937,
  56.974624 -28.288244 0.31003937,57.024475 -28.301601 0.31003937,
  56.974624 -28.288244 -0.31003937,56.974624 -28.288244 -0.31003937,
  57.024475 -28.301601 0.31003937,57.024475 -28.301601 -0.31003937,
  56.948819 -28.287402 0.31003937,56.974624 -28.288244 0.31003937,
  56.948819 -28.287402 -0.31003937,56.948819 -28.287402 -0.31003937,
  56.974624 -28.288244 0.31003937,56.974624 -28.288244 -0.31003937,
  55.137795 -28.287402 0.31003937,56.948819 -28.287402 0.31003937,
  55.137795 -28.287402 -0.31003937,55.137795 -28.287402 -0.31003937,
  56.948819 -28.287402 0.31003937,56.948819 -28.287402 -0.31003937,
  54.625984 -27.775591 0.31003937,55.137795 -28.287402 0.31003937,
  54.625984 -27.775591 -0.31003937,54.625984 -27.775591 -0.31003937,
  55.137795 -28.287402 0.31003937,55.137795 -28.287402 -0.31003937,
  54.035433 -27.775591 0.31003937,54.625984 -27.775591 0.31003937,
  54.035433 -27.775591 -0.31003937,54.035433 -27.775591 -0.31003937,
  54.625984 -27.775591 0.31003937,54.625984 -27.775591 -0.31003937,
  54.035433 -28.011811 0.31003937,54.035433 -27.775591 0.31003937,
  54.035433 -28.011811 -0.31003937,54.035433 -28.011811 -0.31003937,
  54.035433 -27.775591 0.31003937,54.035433 -27.775591 -0.31003937,
  53.562992 -28.011811 0.31003937,54.035433 -28.011811 0.31003937,
  53.562992 -28.011811 -0.31003937,53.562992 -28.011811 -0.31003937,
  54.035433 -28.011811 0.31003937,54.035433 -28.011811 -0.31003937,
  53.326772 -27.775591 0.31003937,53.562992 -28.011811 0.31003937,
  53.326772 -27.775591 -0.31003937,53.326772 -27.775591 -0.31003937,
  53.562992 -28.011811 0.31003937,53.562992 -28.011811 -0.31003937,
  51.240157 -27.775591 0.31003937,53.326772 -27.775591 0.31003937,
  51.240157 -27.775591 -0.31003937,51.240157 -27.775591 -0.31003937,
  53.326772 -27.775591 0.31003937,53.326772 -27.775591 -0.31003937,
  51.240157 -26.043307 0.31003937,51.240157 -27.775591 0.31003937,
  51.240157 -26.043307 -0.31003937,51.240157 -26.043307 -0.31003937,
  51.240157 -27.775591 0.31003937,51.240157 -27.775591 -0.31003937,
  54.338583 -26.043307 0.31003937,51.240157 -26.043307 0.31003937,
  54.338583 -26.043307 -0.31003937,54.338583 -26.043307 -0.31003937,
  51.240157 -26.043307 0.31003937,51.240157 -26.043307 -0.31003937,
  54.338583 -23.287402 0.31003937,54.338583 -26.043307 0.31003937,
  54.338583 -23.287402 -0.31003937,54.338583 -23.287402 -0.31003937,
  54.338583 -26.043307 0.31003937,54.338583 -26.043307 -0.31003937,
  51.582677 -23.287402 0.31003937,54.338583 -23.287402 0.31003937,
  51.582677 -23.287402 -0.31003937,51.582677 -23.287402 -0.31003937,
  54.338583 -23.287402 0.31003937,54.338583 -23.287402 -0.31003937,
  52.298332 -24.46196 0.31003937,52.257874 -24.665354 0.31003937,
  52.298332 -24.46196 -0.31003937,52.298332 -24.46196 -0.31003937,
  52.257874 -24.665354 0.31003937,52.257874 -24.665354 -0.31003937,
  52.413546 -24.28953 0.31003937,52.298332 -24.46196 0.31003937,
  52.413546 -24.28953 -0.31003937,52.413546 -24.28953 -0.31003937,
  52.298332 -24.46196 0.31003937,52.298332 -24.46196 -0.31003937,
  52.585975 -24.174316 0.31003937,52.413546 -24.28953 0.31003937,
  52.585975 -24.174316 -0.31003937,52.585975 -24.174316 -0.31003937,
  52.413546 -24.28953 0.31003937,52.413546 -24.28953 -0.31003937,
  52.78937 -24.133858 0.31003937,52.585975 -24.174316 0.31003937,
  52.78937 -24.133858 -0.31003937,52.78937 -24.133858 -0.31003937,
  52.585975 -24.174316 0.31003937,52.585975 -24.174316 -0.31003937,
  52.992765 -24.174316 0.31003937,52.78937 -24.133858 0.31003937,
  52.992765 -24.174316 -0.31003937,52.992765 -24.174316 -0.31003937,
  52.78937 -24.133858 0.31003937,52.78937 -24.133858 -0.31003937,
  53.165195 -24.28953 0.31003937,52.992765 -24.174316 0.31003937,
  53.165195 -24.28953 -0.31003937,53.165195 -24.28953 -0.31003937,
  52.992765 -24.174316 0.31003937,52.992765 -24.174316 -0.31003937,
  53.280408 -24.46196 0.31003937,53.165195 -24.28953 0.31003937,
  53.280408 -24.46196 -0.31003937,53.280408 -24.46196 -0.31003937,
  53.165195 -24.28953 0.31003937,53.165195 -24.28953 -0.31003937,
  53.320866 -24.665354 0.31003937,53.280408 -24.46196 0.31003937,
  53.320866 -24.665354 -0.31003937,53.320866 -24.665354 -0.31003937,
  53.280408 -24.46196 0.31003937,53.280408 -24.46196 -0.31003937,
  53.280408 -24.868749 0.31003937,53.320866 -24.665354 0.31003937,
  53.280408 -24.868749 -0.31003937,53.280408 -24.868749 -0.31003937,
  53.320866 -24.665354 0.31003937,53.320866 -24.665354 -0.31003937,
  53.165195 -25.041179 0.31003937,53.280408 -24.868749 0.31003937,
  53.165195 -25.041179 -0.31003937,53.165195 -25.041179 -0.31003937,
  53.280408 -24.868749 0.31003937,53.280408 -24.868749 -0.31003937,
  52.992765 -25.156393 0.31003937,53.165195 -25.041179 0.31003937,
  52.992765 -25.156393 -0.31003937,52.992765 -25.156393 -0.31003937,
  53.165195 -25.041179 0.31003937,53.165195 -25.041179 -0.31003937,
  52.78937 -25.19685 0.31003937,52.992765 -25.156393 0.31003937,
  52.78937 -25.19685 -0.31003937,52.78937 -25.19685 -0.31003937,
  52.992765 -25.156393 0.31003937,52.992765 -25.156393 -0.31003937,
  52.585975 -25.156393 0.31003937,52.78937 -25.19685 0.31003937,
  52.585975 -25.156393 -0.31003937,52.585975 -25.156393 -0.31003937,
  52.78937 -25.19685 0.31003937,52.78937 -25.19685 -0.31003937,
  52.413546 -25.041179 0.31003937,52.585975 -25.156393 0.31003937,
  52.413546 -25.041179 -0.31003937,52.413546 -25.041179 -0.31003937,
  52.585975 -25.156393 0.31003937,52.585975 -25.156393 -0.31003937,
  52.298332 -24.868749 0.31003937,52.413546 -25.041179 0.31003937,
  52.298332 -24.868749 -0.31003937,52.298332 -24.868749 -0.31003937,
  52.413546 -25.041179 0.31003937,52.413546 -25.041179 -0.31003937,
  52.257874 -24.665354 0.31003937,52.298332 -24.868749 0.31003937,
  52.257874 -24.665354 -0.31003937,52.257874 -24.665354 -0.31003937,
  52.298332 -24.868749 0.31003937,52.298332 -24.868749 -0.31003937] }
 coordIndex [
  0,1,2,-1,3,4,5,-1,6,7,8,-1,9,10,11,-1,12,13,14,-1,15,16,17,-1,18,19,20,-1,21,22,23,-1,
  24,25,26,-1,27,28,29,-1,30,31,32,-1,33,34,35,-1,36,37,38,-1,39,40,41,-1,42,43,44,-1,45,46,47,-1,
  48,49,50,-1,51,52,53,-1,54,55,56,-1,57,58,59,-1,60,61,62,-1,63,64,65,-1,66,67,68,-1,69,70,71,-1,
  72,73,74,-1,75,76,77,-1,78,79,80,-1,81,82,83,-1,84,85,86,-1,87,88,89,-1,90,91,92,-1,93,94,95,-1,
  96,97,98,-1,99,100,101,-1,102,103,104,-1,105,106,107,-1,108,109,110,-1,111,112,113,-1,114,115,116,-1,117,118,119,-1,
  120,121,122,-1,123,124,125,-1,126,127,128,-1,129,130,131,-1,132,133,134,-1,135,136,137,-1,138,139,140,-1,141,142,143,-1,
  144,145,146,-1,147,148,149,-1,150,151,152,-1,153,154,155,-1,156,157,158,-1,159,160,161,-1,162,163,164,-1,165,166,167,-1,
  168,169,170,-1,171,172,173,-1,174,175,176,-1,177,178,179,-1,180,181,182,-1,183,184,185,-1,186,187,188,-1,189,190,191,-1,
  192,193,194,-1,195,196,197,-1,198,199,200,-1,201,202,203,-1,204,205,206,-1,207,208,209,-1,210,211,212,-1,213,214,215,-1,
  216,217,218,-1,219,220,221,-1,222,223,224,-1,225,226,227,-1,228,229,230,-1,231,232,233,-1,234,235,236,-1,237,238,239,-1,
  240,241,242,-1,243,244,245,-1,246,247,248,-1,249,250,251,-1,252,253,254,-1,255,256,257,-1,258,259,260,-1,261,262,263,-1,
  264,265,266,-1,267,268,269,-1,270,271,272,-1,273,274,275,-1,276,277,278,-1,279,280,281,-1]
  normalPerVertex TRUE
  normal DEF NORM_2 Normal { vector [
  0 1 0,0 1 0,
  0 1 0,0 1 0,
  0 1 0,0 1 0,
  0 1 0,0 1 0,
  0 1 0,0 1 0,
  0 1 0,0 1 0,
  -1 0 0,-1 0 0,
  -1 0 0,-1 0 0,
  -1 0 0,-1 0 0,
  0 -1 0,0 -1 0,
  0 -1 0,0 -1 0,
  0 -1 0,0 -1 0,
  0 -1 0,0 -1 0,
  0 -1 0,0 -1 0,
  0 -1 0,0 -1 0,
  0.032616705 -0.99946793 0,0.032616705 -0.99946793 0,
  0.032616705 -0.99946793 0,0.032616705 -0.99946793 0,
  0.032616705 -0.99946793 0,0.032616705 -0.99946793 0,
  0.25881718 -0.96592633 0,0.25881718 -0.96592633 0,
  0.25881718 -0.96592633 0,0.25881718 -0.96592633 0,
  0.25881718 -0.96592633 0,0.25881718 -0.96592633 0,
  0.50000089 -0.86602489 0,0.50000089 -0.86602489 0,
  0.50000089 -0.86602489 0,0.50000089 -0.86602489 0,
  0.50000089 -0.86602489 0,0.50000089 -0.86602489 0,
  0.70710678 -0.70710678 0,0.70710678 -0.70710678 0,
  0.70710678 -0.70710678 0,0.70710678 -0.70710678 0,
  0.70710678 -0.70710678 0,0.70710678 -0.70710678 0,
  0.86602489 -0.50000089 0,0.86602489 -0.50000089 0,
  0.86602489 -0.50000089 0,0.86602489 -0.50000089 0,
  0.86602489 -0.50000089 0,0.86602489 -0.50000089 0,
  0.96592633 -0.25881718 0,0.96592633 -0.25881718 0,
  0.96592633 -0.25881718 0,0.96592633 -0.25881718 0,
  0.96592633 -0.25881718 0,0.96592633 -0.25881718 0,
  0.99946793 -0.032616705 0,0.99946793 -0.032616705 0,
  0.99946793 -0.032616705 0,0.99946793 -0.032616705 0,
  0.99946793 -0.032616705 0,0.99946793 -0.032616705 0,
  1 0 0,1 0 0,
  1 0 0,1 0 0,
  1 0 0,1 0 0,
  0.99946793 0.032616705 0,0.99946793 0.032616705 0,
  0.99946793 0.032616705 0,0.99946793 0.032616705 0,
  0.99946793 0.032616705 0,0.99946793 0.032616705 0,
  0.96592633 0.25881718 0,0.96592633 0.25881718 0,
  0.96592633 0.25881718 0,0.96592633 0.25881718 0,
  0.96592633 0.25881718 0,0.96592633 0.25881718 0,
  0.86602489 0.50000089 0,0.86602489 0.50000089 0,
  0.86602489 0.50000089 0,0.86602489 0.50000089 0,
  0.86602489 0.50000089 0,0.86602489 0.50000089 0,
  0.70710678 0.70710678 0,0.70710678 0.70710678 0,
  0.70710678 0.70710678 0,0.70710678 0.70710678 0,
  0.70710678 0.70710678 0,0.70710678 0.70710678 0,
  0.50000089 0.86602489 0,0.50000089 0.86602489 0,
  0.50000089 0.86602489 0,0.50000089 0.86602489 0,
  0.50000089 0.86602489 0,0.50000089 0.86602489 0,
  0.25881718 0.96592633 0,0.25881718 0.96592633 0,
  0.25881718 0.96592633 0,0.25881718 0.96592633 0,
  0.25881718 0.96592633 0,0.25881718 0.96592633 0,
  0.032616705 0.99946793 0,0.032616705 0.99946793 0,
  0.032616705 0.99946793 0,0.032616705 0.99946793 0,
  0.032616705 0.99946793 0,0.032616705 0.99946793 0,
  0 1 0,0 1 0,
  0 1 0,0 1 0,
  0 1 0,0 1 0,
  0.70710678 0.70710678 0,0.70710678 0.70710678 0,
  0.70710678 0.70710678 0,0.70710678 0.70710678 0,
  0.70710678 0.70710678 0,0.70710678 0.70710678 0,
  0 1 0,0 1 0,
  0 1 0,0 1 0,
  0 1 0,0 1 0,
  -1 0 0,-1 0 0,
  -1 0 0,-1 0 0,
  -1 0 0,-1 0 0,
  0 1 0,0 1 0,
  0 1 0,0 1 0,
  0 1 0,0 1 0,
  0.70710678 0.70710678 0,0.70710678 0.70710678 0,
  0.70710678 0.70710678 0,0.70710678 0.70710678 0,
  0.70710678 0.70710678 0,0.70710678 0.70710678 0,
  0 1 0,0 1 0,
  0 1 0,0 1 0,
  0 1 0,0 1 0,
  1 0 0,1 0 0,
  1 0 0,1 0 0,
  1 0 0,1 0 0,
  0 -1 0,0 -1 0,
  0 -1 0,0 -1 0,
  0 -1 0,0 -1 0,
  1 0 0,1 0 0,
  1 0 0,1 0 0,
  1 0 0,1 0 0,
  0 1 0,0 1 0,
  0 1 0,0 1 0,
  0 1 0,0 1 0,
  0.98078528 -0.19509032 0,0.98078528 -0.19509032 0,
  0.98078528 -0.19509032 0,0.98078528 -0.19509032 0,
  0.98078528 -0.19509032 0,0.98078528 -0.19509032 0,
  0.83146961 -0.55557023 0,0.83146961 -0.55557023 0,
  0.83146961 -0.55557023 0,0.83146961 -0.55557023 0,
  0.83146961 -0.55557023 0,0.83146961 -0.55557023 0,
  0.55557023 -0.83146961 0,0.55557023 -0.83146961 0,
  0.55557023 -0.83146961 0,0.55557023 -0.83146961 0,
  0.55557023 -0.83146961 0,0.55557023 -0.83146961 0,
  0.19509032 -0.98078528 0,0.19509032 -0.98078528 0,
  0.19509032 -0.98078528 0,0.19509032 -0.98078528 0,
  0.19509032 -0.98078528 0,0.19509032 -0.98078528 0,
  -0.19509032 -0.98078528 0,-0.19509032 -0.98078528 0,
  -0.19509032 -0.98078528 0,-0.19509032 -0.98078528 0,
  -0.19509032 -0.98078528 0,-0.19509032 -0.98078528 0,
  -0.55557023 -0.83146961 0,-0.55557023 -0.83146961 0,
  -0.55557023 -0.83146961 0,-0.55557023 -0.83146961 0,
  -0.55557023 -0.83146961 0,-0.55557023 -0.83146961 0,
  -0.83146961 -0.55557023 0,-0.83146961 -0.55557023 0,
  -0.83146961 -0.55557023 0,-0.83146961 -0.55557023 0,
  -0.83146961 -0.55557023 0,-0.83146961 -0.55557023 0,
  -0.98078528 -0.19509032 0,-0.98078528 -0.19509032 0,
  -0.98078528 -0.19509032 0,-0.98078528 -0.19509032 0,
  -0.98078528 -0.19509032 0,-0.98078528 -0.19509032 0,
  -0.98078528 0.19509032 0,-0.98078528 0.19509032 0,
  -0.98078528 0.19509032 0,-0.98078528 0.19509032 0,
  -0.98078528 0.19509032 0,-0.98078528 0.19509032 0,
  -0.83146961 0.55557023 0,-0.83146961 0.55557023 0,
  -0.83146961 0.55557023 0,-0.83146961 0.55557023 0,
  -0.83146961 0.55557023 0,-0.83146961 0.55557023 0,
  -0.55557023 0.83146961 0,-0.55557023 0.83146961 0,
  -0.55557023 0.83146961 0,-0.55557023 0.83146961 0,
  -0.55557023 0.83146961 0,-0.55557023 0.83146961 0,
  -0.19509032 0.98078528 0,-0.19509032 0.98078528 0,
  -0.19509032 0.98078528 0,-0.19509032 0.98078528 0,
  -0.19509032 0.98078528 0,-0.19509032 0.98078528 0,
  0.19509032 0.98078528 0,0.19509032 0.98078528 0,
  0.19509032 0.98078528 0,0.19509032 0.98078528 0,
  0.19509032 0.98078528 0,0.19509032 0.98078528 0,
  0.55557023 0.83146961 0,0.55557023 0.83146961 0,
  0.55557023 0.83146961 0,0.55557023 0.83146961 0,
  0.55557023 0.83146961 0,0.55557023 0.83146961 0,
  0.83146961 0.55557023 0,0.83146961 0.55557023 0,
  0.83146961 0.55557023 0,0.83146961 0.55557023 0,
  0.83146961 0.55557023 0,0.83146961 0.55557023 0,
  0.98078528 0.19509032 0,0.98078528 0.19509032 0,
  0.98078528 0.19509032 0,0.98078528 0.19509032 0,
  0.98078528 0.19509032 0,0.98078528 0.19509032 0] }
}
}
] }
DEF TXFM_3 Transform {
  center 0 0 0
  rotation 0 0 1 0
  scale 1 1 1
  scaleOrientation 0 0 1 0
  translation 0 0 0
 children [
DEF SHAPE_3 Shape {
 appearance DEF APP_2 Appearance {
  material Material {
   ambientIntensity 1
   diffuseColor 0.75 0.61000001 0.23
   emissiveColor 0 0 0
   shininess 0.89999998
   specularColor 0.89999998 0.84399998 0.69199997
   transparency 0
} }
 geometry DEF FACE_3 IndexedFaceSet {
  coord DEF COORD_3 Coordinate { point [
  56.633858 -31.692913 0.31496063,56.627865 -31.662781 0.31496063,
  56.610796 -31.637236 0.31496063,56.585251 -31.620167 0.31496063,
  56.555118 -31.614173 0.31496063,55.570866 -31.614173 0.31496063,
  55.540733 -31.620167 0.31496063,55.515189 -31.637236 0.31496063,
  55.49812 -31.662781 0.31496063,55.492126 -31.692913 0.31496063,
  55.492126 -31.850394 0.31496063,55.49812 -31.880526 0.31496063,
  55.515189 -31.906071 0.31496063,55.540733 -31.92314 0.31496063,
  55.570866 -31.929134 0.31496063,56.555118 -31.929134 0.31496063,
  56.585251 -31.92314 0.31496063,56.610796 -31.906071 0.31496063,
  56.627865 -31.880526 0.31496063,56.633858 -31.850394 0.31496063,
  56.633858 -31.259843 0.31496063,56.627865 -31.22971 0.31496063,
  56.610796 -31.204165 0.31496063,56.585251 -31.187096 0.31496063,
  56.555118 -31.181102 0.31496063,55.570866 -31.181102 0.31496063,
  55.540733 -31.187096 0.31496063,55.515189 -31.204165 0.31496063,
  55.49812 -31.22971 0.31496063,55.492126 -31.259843 0.31496063,
  55.492126 -31.417323 0.31496063,55.49812 -31.447456 0.31496063,
  55.515189 -31.473 0.31496063,55.540733 -31.490069 0.31496063,
  55.570866 -31.496063 0.31496063,56.555118 -31.496063 0.31496063,
  56.585251 -31.490069 0.31496063,56.610796 -31.473 0.31496063,
  56.627865 -31.447456 0.31496063,56.633858 -31.417323 0.31496063,
  56.751969 -30.826772 0.31496063,56.745975 -30.796639 0.31496063,
  56.728906 -30.771094 0.31496063,56.703361 -30.754025 0.31496063,
  56.673228 -30.748031 0.31496063,55.570866 -30.748031 0.31496063,
  55.540733 -30.754025 0.31496063,55.515189 -30.771094 0.31496063,
  55.49812 -30.796639 0.31496063,55.492126 -30.826772 0.31496063,
  55.492126 -30.984252 0.31496063,55.49812 -31.014385 0.31496063,
  55.515189 -31.03993 0.31496063,55.540733 -31.056998 0.31496063,
  55.570866 -31.062992 0.31496063,56.673228 -31.062992 0.31496063,
  56.703361 -31.056998 0.31496063,56.728906 -31.03993 0.31496063,
  56.745975 -31.014385 0.31496063,56.751969 -30.984252 0.31496063,
  56.633858 -30.393701 0.31496063,56.627865 -30.363568 0.31496063,
  56.610796 -30.338023 0.31496063,56.585251 -30.320954 0.31496063,
  56.555118 -30.314961 0.31496063,55.570866 -30.314961 0.31496063,
  55.540733 -30.320954 0.31496063,55.515189 -30.338023 0.31496063,
  55.49812 -30.363568 0.31496063,55.492126 -30.393701 0.31496063,
  55.492126 -30.551181 0.31496063,55.49812 -30.581314 0.31496063,
  55.515189 -30.606859 0.31496063,55.540733 -30.623928 0.31496063,
  55.570866 -30.629921 0.31496063,56.555118 -30.629921 0.31496063,
  56.585251 -30.623928 0.31496063,56.610796 -30.606859 0.31496063,
  56.627865 -30.581314 0.31496063,56.633858 -30.551181 0.31496063,
  56.751969 -29.96063 0.31496063,56.745975 -29.930497 0.31496063,
  56.728906 -29.904952 0.31496063,56.703361 -29.887883 0.31496063,
  56.673228 -29.88189 0.31496063,55.570866 -29.88189 0.31496063,
  55.540733 -29.887883 0.31496063,55.515189 -29.904952 0.31496063,
  55.49812 -29.930497 0.31496063,55.492126 -29.96063 0.31496063,
  55.492126 -30.11811 0.31496063,55.49812 -30.148243 0.31496063,
  55.515189 -30.173788 0.31496063,55.540733 -30.190857 0.31496063,
  55.570866 -30.19685 0.31496063,56.673228 -30.19685 0.31496063,
  56.703361 -30.190857 0.31496063,56.728906 -30.173788 0.31496063,
  56.745975 -30.148243 0.31496063,56.751969 -30.11811 0.31496063,
  56.633858 -29.527559 0.31496063,56.627865 -29.497426 0.31496063,
  56.610796 -29.471881 0.31496063,56.585251 -29.454813 0.31496063,
  56.555118 -29.448819 0.31496063,55.570866 -29.448819 0.31496063,
  55.540733 -29.454813 0.31496063,55.515189 -29.471881 0.31496063,
  55.49812 -29.497426 0.31496063,55.492126 -29.527559 0.31496063,
  55.492126 -29.685039 0.31496063,55.49812 -29.715172 0.31496063,
  55.515189 -29.740717 0.31496063,55.540733 -29.757786 0.31496063,
  55.570866 -29.76378 0.31496063,56.555118 -29.76378 0.31496063,
  56.585251 -29.757786 0.31496063,56.610796 -29.740717 0.31496063,
  56.627865 -29.715172 0.31496063,56.633858 -29.685039 0.31496063,
  56.633858 -29.094488 0.31496063,56.627865 -29.064356 0.31496063,
  56.610796 -29.038811 0.31496063,56.585251 -29.021742 0.31496063,
  56.555118 -29.015748 0.31496063,55.570866 -29.015748 0.31496063,
  55.540733 -29.021742 0.31496063,55.515189 -29.038811 0.31496063,
  55.49812 -29.064356 0.31496063,55.492126 -29.094488 0.31496063,
  55.492126 -29.251969 0.31496063,55.49812 -29.282101 0.31496063,
  55.515189 -29.307646 0.31496063,55.540733 -29.324715 0.31496063,
  55.570866 -29.330709 0.31496063,56.555118 -29.330709 0.31496063,
  56.585251 -29.324715 0.31496063,56.610796 -29.307646 0.31496063,
  56.627865 -29.282101 0.31496063,56.633858 -29.251969 0.31496063,
  56.633858 -28.661417 0.31496063,56.627865 -28.631285 0.31496063,
  56.610796 -28.60574 0.31496063,56.585251 -28.588671 0.31496063,
  56.555118 -28.582677 0.31496063,55.570866 -28.582677 0.31496063,
  55.540733 -28.588671 0.31496063,55.515189 -28.60574 0.31496063,
  55.49812 -28.631285 0.31496063,55.492126 -28.661417 0.31496063,
  55.492126 -28.818898 0.31496063,55.49812 -28.84903 0.31496063,
  55.515189 -28.874575 0.31496063,55.540733 -28.891644 0.31496063,
  55.570866 -28.897638 0.31496063,56.555118 -28.897638 0.31496063,
  56.585251 -28.891644 0.31496063,56.610796 -28.874575 0.31496063,
  56.627865 -28.84903 0.31496063,56.633858 -28.818898 0.31496063] }
 coordIndex [
  9,11,8,-1,8,11,12,-1,8,12,7,-1,7,12,13,-1,7,13,6,-1,6,13,14,-1,6,14,5,-1,5,14,15,-1,
  5,15,4,-1,4,15,16,-1,4,16,3,-1,3,16,17,-1,3,17,2,-1,2,17,18,-1,2,18,1,-1,1,18,19,-1,
  1,19,0,-1,29,31,28,-1,28,31,32,-1,28,32,27,-1,27,32,33,-1,27,33,26,-1,26,33,34,-1,26,34,25,-1,
  25,34,35,-1,25,35,24,-1,24,35,36,-1,24,36,23,-1,23,36,37,-1,23,37,22,-1,22,37,38,-1,22,38,21,-1,
  21,38,39,-1,21,39,20,-1,49,51,48,-1,48,51,52,-1,48,52,47,-1,47,52,53,-1,47,53,46,-1,46,53,54,-1,
  46,54,45,-1,45,54,55,-1,45,55,44,-1,44,55,56,-1,44,56,43,-1,43,56,57,-1,43,57,42,-1,42,57,58,-1,
  42,58,41,-1,41,58,59,-1,41,59,40,-1,69,71,68,-1,68,71,72,-1,68,72,67,-1,67,72,73,-1,67,73,66,-1,
  66,73,74,-1,66,74,65,-1,65,74,75,-1,65,75,64,-1,64,75,76,-1,64,76,63,-1,63,76,77,-1,63,77,62,-1,
  62,77,78,-1,62,78,61,-1,61,78,79,-1,61,79,60,-1,89,91,88,-1,88,91,92,-1,88,92,87,-1,87,92,93,-1,
  87,93,86,-1,86,93,94,-1,86,94,85,-1,85,94,95,-1,85,95,84,-1,84,95,96,-1,84,96,83,-1,83,96,97,-1,
  83,97,82,-1,82,97,98,-1,82,98,81,-1,81,98,99,-1,81,99,80,-1,109,111,108,-1,108,111,112,-1,108,112,107,-1,
  107,112,113,-1,107,113,106,-1,106,113,114,-1,106,114,105,-1,105,114,115,-1,105,115,104,-1,104,115,116,-1,104,116,103,-1,
  103,116,117,-1,103,117,102,-1,102,117,118,-1,102,118,101,-1,101,118,119,-1,101,119,100,-1,129,131,128,-1,128,131,132,-1,
  128,132,127,-1,127,132,133,-1,127,133,126,-1,126,133,134,-1,126,134,125,-1,125,134,135,-1,125,135,124,-1,124,135,136,-1,
  124,136,123,-1,123,136,137,-1,123,137,122,-1,122,137,138,-1,122,138,121,-1,121,138,139,-1,121,139,120,-1,149,151,148,-1,
  148,151,152,-1,148,152,147,-1,147,152,153,-1,147,153,146,-1,146,153,154,-1,146,154,145,-1,145,154,155,-1,145,155,144,-1,
  144,155,156,-1,144,156,143,-1,143,156,157,-1,143,157,142,-1,142,157,158,-1,142,158,141,-1,141,158,159,-1,141,159,140,-1,
  151,149,150,-1,131,129,130,-1,111,109,110,-1,91,89,90,-1,71,69,70,-1,51,49,50,-1,31,29,30,-1,11,9,10,-1]
  normalPerVertex TRUE
  normal DEF NORM_3 Normal { vector [
  0 0 1,0 0 1,
  0 0 1,0 0 1,
  0 0 1,0 0 1,
  0 0 1,0 0 1,
  0 0 1,0 0 1,
  0 0 1,0 0 1,
  0 0 1,0 0 1,
  0 0 1,0 0 1,
  0 0 1,0 0 1,
  0 0 1,0 0 1,
  0 0 1,0 0 1,
  0 0 1,0 0 1,
  0 0 1,0 0 1,
  0 0 1,0 0 1,
  0 0 1,0 0 1,
  0 0 1,0 0 1,
  0 0 1,0 0 1,
  0 0 1,0 0 1,
  0 0 1,0 0 1,
  0 0 1,0 0 1,
  0 0 1,0 0 1,
  0 0 1,0 0 1,
  0 0 1,0 0 1,
  0 0 1,0 0 1,
  0 0 1,0 0 1,
  0 0 1,0 0 1,
  0 0 1,0 0 1,
  0 0 1,0 0 1,
  0 0 1,0 0 1,
  0 0 1,0 0 1,
  0 0 1,0 0 1,
  0 0 1,0 0 1,
  0 0 1,0 0 1,
  0 0 1,0 0 1,
  0 0 1,0 0 1,
  0 0 1,0 0 1,
  0 0 1,0 0 1,
  0 0 1,0 0 1,
  0 0 1,0 0 1,
  0 0 1,0 0 1,
  0 0 1,0 0 1,
  0 0 1,0 0 1,
  0 0 1,0 0 1,
  0 0 1,0 0 1,
  0 0 1,0 0 1,
  0 0 1,0 0 1,
  0 0 1,0 0 1,
  0 0 1,0 0 1,
  0 0 1,0 0 1,
  0 0 1,0 0 1,
  0 0 1,0 0 1,
  0 0 1,0 0 1,
  0 0 1,0 0 1,
  0 0 1,0 0 1,
  0 0 1,0 0 1,
  0 0 1,0 0 1,
  0 0 1,0 0 1,
  0 0 1,0 0 1,
  0 0 1,0 0 1,
  0 0 1,0 0 1,
  0 0 1,0 0 1,
  0 0 1,0 0 1,
  0 0 1,0 0 1,
  0 0 1,0 0 1,
  0 0 1,0 0 1,
  0 0 1,0 0 1,
  0 0 1,0 0 1,
  0 0 1,0 0 1,
  0 0 1,0 0 1,
  0 0 1,0 0 1,
  0 0 1,0 0 1,
  0 0 1,0 0 1,
  0 0 1,0 0 1,
  0 0 1,0 0 1,
  0 0 1,0 0 1,
  0 0 1,0 0 1,
  0 0 1,0 0 1,
  0 0 1,0 0 1,
  0 0 1,0 0 1,
  0 0 1,0 0 1] }
}
}
] }
DEF TXFM_4 Transform {
  center 0 0 0
  rotation 0 0 1 0
  scale 1 1 1
  scaleOrientation 0 0 1 0
  translation 0 0 0
 children [
DEF SHAPE_4 Shape {
 appearance DEF APP_3 Appearance {
  material Material {
   ambientIntensity 1
   diffuseColor 0.5 0.5 0.5
   emissiveColor 0 0 0
   shininess 0.69999999
   specularColor 0.80000001 0.80000001 0.80000001
   transparency 0
} }
 geometry DEF FACE_4 IndexedFaceSet {
  coord DEF COORD_4 Coordinate { point [
  56.633858 -31.692913 0.31988189,56.627865 -31.662781 0.31988189,
  56.610796 -31.637236 0.31988189,56.585251 -31.620167 0.31988189,
  56.555118 -31.614173 0.31988189,55.570866 -31.614173 0.31988189,
  55.540733 -31.620167 0.31988189,55.515189 -31.637236 0.31988189,
  55.49812 -31.662781 0.31988189,55.492126 -31.692913 0.31988189,
  55.492126 -31.850394 0.31988189,55.49812 -31.880526 0.31988189,
  55.515189 -31.906071 0.31988189,55.540733 -31.92314 0.31988189,
  55.570866 -31.929134 0.31988189,56.555118 -31.929134 0.31988189,
  56.585251 -31.92314 0.31988189,56.610796 -31.906071 0.31988189,
  56.627865 -31.880526 0.31988189,56.633858 -31.850394 0.31988189,
  56.633858 -31.259843 0.31988189,56.627865 -31.22971 0.31988189,
  56.610796 -31.204165 0.31988189,56.585251 -31.187096 0.31988189,
  56.555118 -31.181102 0.31988189,55.570866 -31.181102 0.31988189,
  55.540733 -31.187096 0.31988189,55.515189 -31.204165 0.31988189,
  55.49812 -31.22971 0.31988189,55.492126 -31.259843 0.31988189,
  55.492126 -31.417323 0.31988189,55.49812 -31.447456 0.31988189,
  55.515189 -31.473 0.31988189,55.540733 -31.490069 0.31988189,
  55.570866 -31.496063 0.31988189,56.555118 -31.496063 0.31988189,
  56.585251 -31.490069 0.31988189,56.610796 -31.473 0.31988189,
  56.627865 -31.447456 0.31988189,56.633858 -31.417323 0.31988189,
  56.751969 -30.826772 0.31988189,56.745975 -30.796639 0.31988189,
  56.728906 -30.771094 0.31988189,56.703361 -30.754025 0.31988189,
  56.673228 -30.748031 0.31988189,55.570866 -30.748031 0.31988189,
  55.540733 -30.754025 0.31988189,55.515189 -30.771094 0.31988189,
  55.49812 -30.796639 0.31988189,55.492126 -30.826772 0.31988189,
  55.492126 -30.984252 0.31988189,55.49812 -31.014385 0.31988189,
  55.515189 -31.03993 0.31988189,55.540733 -31.056998 0.31988189,
  55.570866 -31.062992 0.31988189,56.673228 -31.062992 0.31988189,
  56.703361 -31.056998 0.31988189,56.728906 -31.03993 0.31988189,
  56.745975 -31.014385 0.31988189,56.751969 -30.984252 0.31988189,
  56.633858 -30.393701 0.31988189,56.627865 -30.363568 0.31988189,
  56.610796 -30.338023 0.31988189,56.585251 -30.320954 0.31988189,
  56.555118 -30.314961 0.31988189,55.570866 -30.314961 0.31988189,
  55.540733 -30.320954 0.31988189,55.515189 -30.338023 0.31988189,
  55.49812 -30.363568 0.31988189,55.492126 -30.393701 0.31988189,
  55.492126 -30.551181 0.31988189,55.49812 -30.581314 0.31988189,
  55.515189 -30.606859 0.31988189,55.540733 -30.623928 0.31988189,
  55.570866 -30.629921 0.31988189,56.555118 -30.629921 0.31988189,
  56.585251 -30.623928 0.31988189,56.610796 -30.606859 0.31988189,
  56.627865 -30.581314 0.31988189,56.633858 -30.551181 0.31988189,
  56.751969 -29.96063 0.31988189,56.745975 -29.930497 0.31988189,
  56.728906 -29.904952 0.31988189,56.703361 -29.887883 0.31988189,
  56.673228 -29.88189 0.31988189,55.570866 -29.88189 0.31988189,
  55.540733 -29.887883 0.31988189,55.515189 -29.904952 0.31988189,
  55.49812 -29.930497 0.31988189,55.492126 -29.96063 0.31988189,
  55.492126 -30.11811 0.31988189,55.49812 -30.148243 0.31988189,
  55.515189 -30.173788 0.31988189,55.540733 -30.190857 0.31988189,
  55.570866 -30.19685 0.31988189,56.673228 -30.19685 0.31988189,
  56.703361 -30.190857 0.31988189,56.728906 -30.173788 0.31988189,
  56.745975 -30.148243 0.31988189,56.751969 -30.11811 0.31988189,
  56.633858 -29.527559 0.31988189,56.627865 -29.497426 0.31988189,
  56.610796 -29.471881 0.31988189,56.585251 -29.454813 0.31988189,
  56.555118 -29.448819 0.31988189,55.570866 -29.448819 0.31988189,
  55.540733 -29.454813 0.31988189,55.515189 -29.471881 0.31988189,
  55.49812 -29.497426 0.31988189,55.492126 -29.527559 0.31988189,
  55.492126 -29.685039 0.31988189,55.49812 -29.715172 0.31988189,
  55.515189 -29.740717 0.31988189,55.540733 -29.757786 0.31988189,
  55.570866 -29.76378 0.31988189,56.555118 -29.76378 0.31988189,
  56.585251 -29.757786 0.31988189,56.610796 -29.740717 0.31988189,
  56.627865 -29.715172 0.31988189,56.633858 -29.685039 0.31988189,
  56.633858 -29.094488 0.31988189,56.627865 -29.064356 0.31988189,
  56.610796 -29.038811 0.31988189,56.585251 -29.021742 0.31988189,
  56.555118 -29.015748 0.31988189,55.570866 -29.015748 0.31988189,
  55.540733 -29.021742 0.31988189,55.515189 -29.038811 0.31988189,
  55.49812 -29.064356 0.31988189,55.492126 -29.094488 0.31988189,
  55.492126 -29.251969 0.31988189,55.49812 -29.282101 0.31988189,
  55.515189 -29.307646 0.31988189,55.540733 -29.324715 0.31988189,
  55.570866 -29.330709 0.31988189,56.555118 -29.330709 0.31988189,
  56.585251 -29.324715 0.31988189,56.610796 -29.307646 0.31988189,
  56.627865 -29.282101 0.31988189,56.633858 -29.251969 0.31988189,
  56.633858 -28.661417 0.31988189,56.627865 -28.631285 0.31988189,
  56.610796 -28.60574 0.31988189,56.585251 -28.588671 0.31988189,
  56.555118 -28.582677 0.31988189,55.570866 -28.582677 0.31988189,
  55.540733 -28.588671 0.31988189,55.515189 -28.60574 0.31988189,
  55.49812 -28.631285 0.31988189,55.492126 -28.661417 0.31988189,
  55.492126 -28.818898 0.31988189,55.49812 -28.84903 0.31988189,
  55.515189 -28.874575 0.31988189,55.540733 -28.891644 0.31988189,
  55.570866 -28.897638 0.31988189,56.555118 -28.897638 0.31988189,
  56.585251 -28.891644 0.31988189,56.610796 -28.874575 0.31988189,
  56.627865 -28.84903 0.31988189,56.633858 -28.818898 0.31988189] }
 coordIndex [
  9,11,8,-1,8,11,12,-1,8,12,7,-1,7,12,13,-1,7,13,6,-1,6,13,14,-1,6,14,5,-1,5,14,15,-1,
  5,15,4,-1,4,15,16,-1,4,16,3,-1,3,16,17,-1,3,17,2,-1,2,17,18,-1,2,18,1,-1,1,18,19,-1,
  1,19,0,-1,29,31,28,-1,28,31,32,-1,28,32,27,-1,27,32,33,-1,27,33,26,-1,26,33,34,-1,26,34,25,-1,
  25,34,35,-1,25,35,24,-1,24,35,36,-1,24,36,23,-1,23,36,37,-1,23,37,22,-1,22,37,38,-1,22,38,21,-1,
  21,38,39,-1,21,39,20,-1,49,51,48,-1,48,51,52,-1,48,52,47,-1,47,52,53,-1,47,53,46,-1,46,53,54,-1,
  46,54,45,-1,45,54,55,-1,45,55,44,-1,44,55,56,-1,44,56,43,-1,43,56,57,-1,43,57,42,-1,42,57,58,-1,
  42,58,41,-1,41,58,59,-1,41,59,40,-1,69,71,68,-1,68,71,72,-1,68,72,67,-1,67,72,73,-1,67,73,66,-1,
  66,73,74,-1,66,74,65,-1,65,74,75,-1,65,75,64,-1,64,75,76,-1,64,76,63,-1,63,76,77,-1,63,77,62,-1,
  62,77,78,-1,62,78,61,-1,61,78,79,-1,61,79,60,-1,89,91,88,-1,88,91,92,-1,88,92,87,-1,87,92,93,-1,
  87,93,86,-1,86,93,94,-1,86,94,85,-1,85,94,95,-1,85,95,84,-1,84,95,96,-1,84,96,83,-1,83,96,97,-1,
  83,97,82,-1,82,97,98,-1,82,98,81,-1,81,98,99,-1,81,99,80,-1,109,111,108,-1,108,111,112,-1,108,112,107,-1,
  107,112,113,-1,107,113,106,-1,106,113,114,-1,106,114,105,-1,105,114,115,-1,105,115,104,-1,104,115,116,-1,104,116,103,-1,
  103,116,117,-1,103,117,102,-1,102,117,118,-1,102,118,101,-1,101,118,119,-1,101,119,100,-1,129,131,128,-1,128,131,132,-1,
  128,132,127,-1,127,132,133,-1,127,133,126,-1,126,133,134,-1,126,134,125,-1,125,134,135,-1,125,135,124,-1,124,135,136,-1,
  124,136,123,-1,123,136,137,-1,123,137,122,-1,122,137,138,-1,122,138,121,-1,121,138,139,-1,121,139,120,-1,149,151,148,-1,
  148,151,152,-1,148,152,147,-1,147,152,153,-1,147,153,146,-1,146,153,154,-1,146,154,145,-1,145,154,155,-1,145,155,144,-1,
  144,155,156,-1,144,156,143,-1,143,156,157,-1,143,157,142,-1,142,157,158,-1,142,158,141,-1,141,158,159,-1,141,159,140,-1,
  151,149,150,-1,131,129,130,-1,111,109,110,-1,91,89,90,-1,71,69,70,-1,51,49,50,-1,31,29,30,-1,11,9,10,-1]
  normalPerVertex TRUE
  normal DEF NORM_4 Normal { vector [
  0 0 1,0 0 1,
  0 0 1,0 0 1,
  0 0 1,0 0 1,
  0 0 1,0 0 1,
  0 0 1,0 0 1,
  0 0 1,0 0 1,
  0 0 1,0 0 1,
  0 0 1,0 0 1,
  0 0 1,0 0 1,
  0 0 1,0 0 1,
  0 0 1,0 0 1,
  0 0 1,0 0 1,
  0 0 1,0 0 1,
  0 0 1,0 0 1,
  0 0 1,0 0 1,
  0 0 1,0 0 1,
  0 0 1,0 0 1,
  0 0 1,0 0 1,
  0 0 1,0 0 1,
  0 0 1,0 0 1,
  0 0 1,0 0 1,
  0 0 1,0 0 1,
  0 0 1,0 0 1,
  0 0 1,0 0 1,
  0 0 1,0 0 1,
  0 0 1,0 0 1,
  0 0 1,0 0 1,
  0 0 1,0 0 1,
  0 0 1,0 0 1,
  0 0 1,0 0 1,
  0 0 1,0 0 1,
  0 0 1,0 0 1,
  0 0 1,0 0 1,
  0 0 1,0 0 1,
  0 0 1,0 0 1,
  0 0 1,0 0 1,
  0 0 1,0 0 1,
  0 0 1,0 0 1,
  0 0 1,0 0 1,
  0 0 1,0 0 1,
  0 0 1,0 0 1,
  0 0 1,0 0 1,
  0 0 1,0 0 1,
  0 0 1,0 0 1,
  0 0 1,0 0 1,
  0 0 1,0 0 1,
  0 0 1,0 0 1,
  0 0 1,0 0 1,
  0 0 1,0 0 1,
  0 0 1,0 0 1,
  0 0 1,0 0 1,
  0 0 1,0 0 1,
  0 0 1,0 0 1,
  0 0 1,0 0 1,
  0 0 1,0 0 1,
  0 0 1,0 0 1,
  0 0 1,0 0 1,
  0 0 1,0 0 1,
  0 0 1,0 0 1,
  0 0 1,0 0 1,
  0 0 1,0 0 1,
  0 0 1,0 0 1,
  0 0 1,0 0 1,
  0 0 1,0 0 1,
  0 0 1,0 0 1,
  0 0 1,0 0 1,
  0 0 1,0 0 1,
  0 0 1,0 0 1,
  0 0 1,0 0 1,
  0 0 1,0 0 1,
  0 0 1,0 0 1,
  0 0 1,0 0 1,
  0 0 1,0 0 1,
  0 0 1,0 0 1,
  0 0 1,0 0 1,
  0 0 1,0 0 1,
  0 0 1,0 0 1,
  0 0 1,0 0 1,
  0 0 1,0 0 1,
  0 0 1,0 0 1] }
}
}
] }
DEF TXFM_5 Transform {
  center 0 0 0
  rotation 0 0 1 0
  scale 1 1 1
  scaleOrientation 0 0 1 0
  translation 0 0 0
 children [
DEF SHAPE_5 Shape {
 appearance DEF APP_4 Appearance {
  material Material {
   ambientIntensity 1
   diffuseColor 0.078431375 0.2 0.14117648
   emissiveColor 0 0 0
   shininess 0.30000001
   specularColor 0.35490197 0.44 0.39882353
   transparency 0.17
} }
 geometry DEF FACE_5 IndexedFaceSet {
  coord DEF COORD_5 Coordinate { point [
  56.633858 -31.417323 0.31988189,56.627865 -31.447456 0.31988189,
  56.610796 -31.473 0.31988189,56.585251 -31.490069 0.31988189,
  56.555118 -31.496063 0.31988189,55.570866 -31.496063 0.31988189,
  55.540733 -31.490069 0.31988189,55.515189 -31.473 0.31988189,
  55.49812 -31.447456 0.31988189,55.492126 -31.417323 0.31988189,
  55.492126 -31.259843 0.31988189,55.49812 -31.22971 0.31988189,
  55.515189 -31.204165 0.31988189,55.540733 -31.187096 0.31988189,
  55.570866 -31.181102 0.31988189,56.555118 -31.181102 0.31988189,
  56.585251 -31.187096 0.31988189,56.610796 -31.204165 0.31988189,
  56.627865 -31.22971 0.31988189,56.633858 -31.259843 0.31988189,
  56.633858 -31.692913 0.31988189,56.633858 -31.850394 0.31988189,
  56.627865 -31.880526 0.31988189,56.610796 -31.906071 0.31988189,
  56.585251 -31.92314 0.31988189,56.555118 -31.929134 0.31988189,
  55.570866 -31.929134 0.31988189,55.540733 -31.92314 0.31988189,
  55.515189 -31.906071 0.31988189,55.49812 -31.880526 0.31988189,
  55.492126 -31.850394 0.31988189,55.492126 -31.692913 0.31988189,
  55.49812 -31.662781 0.31988189,55.515189 -31.637236 0.31988189,
  55.540733 -31.620167 0.31988189,55.570866 -31.614173 0.31988189,
  56.555118 -31.614173 0.31988189,56.585251 -31.620167 0.31988189,
  56.610796 -31.637236 0.31988189,56.627865 -31.662781 0.31988189,
  56.633858 -29.251969 0.31988189,56.627865 -29.282101 0.31988189,
  56.610796 -29.307646 0.31988189,56.585251 -29.324715 0.31988189,
  56.555118 -29.330709 0.31988189,55.570866 -29.330709 0.31988189,
  55.540733 -29.324715 0.31988189,55.515189 -29.307646 0.31988189,
  55.49812 -29.282101 0.31988189,55.492126 -29.251969 0.31988189,
  55.492126 -29.094488 0.31988189,55.49812 -29.064356 0.31988189,
  55.515189 -29.038811 0.31988189,55.540733 -29.021742 0.31988189,
  55.570866 -29.015748 0.31988189,56.555118 -29.015748 0.31988189,
  56.585251 -29.021742 0.31988189,56.610796 -29.038811 0.31988189,
  56.627865 -29.064356 0.31988189,56.633858 -29.094488 0.31988189,
  56.633858 -29.527559 0.31988189,56.633858 -29.685039 0.31988189,
  56.627865 -29.715172 0.31988189,56.610796 -29.740717 0.31988189,
  56.585251 -29.757786 0.31988189,56.555118 -29.76378 0.31988189,
  55.570866 -29.76378 0.31988189,55.540733 -29.757786 0.31988189,
  55.515189 -29.740717 0.31988189,55.49812 -29.715172 0.31988189,
  55.492126 -29.685039 0.31988189,55.492126 -29.527559 0.31988189,
  55.49812 -29.497426 0.31988189,55.515189 -29.471881 0.31988189,
  55.540733 -29.454813 0.31988189,55.570866 -29.448819 0.31988189,
  56.555118 -29.448819 0.31988189,56.585251 -29.454813 0.31988189,
  56.610796 -29.471881 0.31988189,56.627865 -29.497426 0.31988189,
  56.633858 -28.818898 0.31988189,56.627865 -28.84903 0.31988189,
  56.610796 -28.874575 0.31988189,56.585251 -28.891644 0.31988189,
  56.555118 -28.897638 0.31988189,55.570866 -28.897638 0.31988189,
  55.540733 -28.891644 0.31988189,55.515189 -28.874575 0.31988189,
  55.49812 -28.84903 0.31988189,55.492126 -28.818898 0.31988189,
  55.492126 -28.661417 0.31988189,55.49812 -28.631285 0.31988189,
  55.515189 -28.60574 0.31988189,55.540733 -28.588671 0.31988189,
  55.570866 -28.582677 0.31988189,56.555118 -28.582677 0.31988189,
  56.585251 -28.588671 0.31988189,56.610796 -28.60574 0.31988189,
  56.627865 -28.631285 0.31988189,56.633858 -28.661417 0.31988189,
  55.492126 -30.11811 0.31988189,55.492126 -29.96063 0.31988189,
  55.49812 -29.930497 0.31988189,55.515189 -29.904952 0.31988189,
  55.540733 -29.887883 0.31988189,55.570866 -29.88189 0.31988189,
  56.673228 -29.88189 0.31988189,56.703361 -29.887883 0.31988189,
  56.728906 -29.904952 0.31988189,56.745975 -29.930497 0.31988189,
  56.751969 -29.96063 0.31988189,56.751969 -30.11811 0.31988189,
  56.745975 -30.148243 0.31988189,56.728906 -30.173788 0.31988189,
  56.703361 -30.190857 0.31988189,56.673228 -30.19685 0.31988189,
  55.570866 -30.19685 0.31988189,55.540733 -30.190857 0.31988189,
  55.515189 -30.173788 0.31988189,55.49812 -30.148243 0.31988189,
  56.673228 -30.748031 0.31988189,56.703361 -30.754025 0.31988189,
  56.728906 -30.771094 0.31988189,56.745975 -30.796639 0.31988189,
  56.751969 -30.826772 0.31988189,56.751969 -30.984252 0.31988189,
  56.745975 -31.014385 0.31988189,56.728906 -31.03993 0.31988189,
  56.703361 -31.056998 0.31988189,56.673228 -31.062992 0.31988189,
  55.570866 -31.062992 0.31988189,55.540733 -31.056998 0.31988189,
  55.515189 -31.03993 0.31988189,55.49812 -31.014385 0.31988189,
  55.492126 -30.984252 0.31988189,55.492126 -30.826772 0.31988189,
  55.49812 -30.796639 0.31988189,55.515189 -30.771094 0.31988189,
  55.540733 -30.754025 0.31988189,55.570866 -30.748031 0.31988189,
  56.633858 -30.393701 0.31988189,56.633858 -30.551181 0.31988189,
  56.627865 -30.581314 0.31988189,56.610796 -30.606859 0.31988189,
  56.585251 -30.623928 0.31988189,56.555118 -30.629921 0.31988189,
  55.570866 -30.629921 0.31988189,55.540733 -30.623928 0.31988189,
  55.515189 -30.606859 0.31988189,55.49812 -30.581314 0.31988189,
  55.492126 -30.551181 0.31988189,55.492126 -30.393701 0.31988189,
  55.49812 -30.363568 0.31988189,55.515189 -30.338023 0.31988189,
  55.540733 -30.320954 0.31988189,55.570866 -30.314961 0.31988189,
  56.555118 -30.314961 0.31988189,56.585251 -30.320954 0.31988189,
  56.610796 -30.338023 0.31988189,56.627865 -30.363568 0.31988189,
  51.582677 -23.287402 0.31988189,51.240157 -23.287402 0.31988189,
  50.846457 -23.287402 0.31988189,50.846457 -24.623654 0.31988189,
  50.846457 -28.661417 0.31988189,50.846457 -29.094488 0.31988189,
  50.846457 -29.527559 0.31988189,50.846457 -29.96063 0.31988189,
  50.846457 -30.393701 0.31988189,50.846457 -30.826772 0.31988189,
  50.846457 -31.259843 0.31988189,50.846457 -31.692913 0.31988189,
  50.846457 -32.106299 0.31988189,51.240157 -32.106299 0.31988189,
  56.948819 -32.106299 0.31988189,56.974624 -32.105457 0.31988189,
  57.024475 -32.0921 0.31988189,57.069171 -32.066294 0.31988189,
  57.105665 -32.029801 0.31988189,57.13147 -31.985105 0.31988189,
  57.144827 -31.935254 0.31988189,57.145669 -31.909449 0.31988189,
  57.145669 -28.484252 0.31988189,57.144827 -28.458447 0.31988189,
  57.13147 -28.408596 0.31988189,57.105665 -28.3639 0.31988189,
  57.069171 -28.327406 0.31988189,57.024475 -28.301601 0.31988189,
  56.974624 -28.288244 0.31988189,56.948819 -28.287402 0.31988189,
  55.137795 -28.287402 0.31988189,54.625984 -27.775591 0.31988189,
  54.035433 -27.775591 0.31988189,54.035433 -28.011811 0.31988189,
  53.562992 -28.011811 0.31988189,53.326772 -27.775591 0.31988189,
  51.240157 -27.775591 0.31988189,51.240157 -26.043307 0.31988189,
  54.338583 -26.043307 0.31988189,54.338583 -23.287402 0.31988189,
  52.257874 -24.665354 0.31988189,52.259512 -24.657116 0.31988189,
  52.259513 -24.623654 0.31988189,52.272559 -24.541279 0.31988189,
  52.298331 -24.46196 0.31988189,52.298332 -24.46196 0.31988189,
  52.298331 -24.461959 0.31988189,52.336195 -24.387648 0.31988189,
  52.385217 -24.320175 0.31988189,52.40888 -24.296513 0.31988189,
  52.413546 -24.28953 0.31988189,52.420528 -24.284864 0.31988189,
  52.444191 -24.261202 0.31988189,52.511664 -24.21218 0.31988189,
  52.585974 -24.174316 0.31988189,52.585975 -24.174316 0.31988189,
  52.585976 -24.174316 0.31988189,52.665295 -24.148544 0.31988189,
  52.747669 -24.135497 0.31988189,52.781132 -24.135497 0.31988189,
  52.78937 -24.133858 0.31988189,52.797607 -24.135497 0.31988189,
  52.831071 -24.135497 0.31988189,52.913445 -24.148544 0.31988189,
  52.992764 -24.174316 0.31988189,52.992765 -24.174316 0.31988189,
  52.992765 -24.174316 0.31988189,53.067076 -24.21218 0.31988189,
  53.134549 -24.261202 0.31988189,53.158212 -24.284864 0.31988189,
  53.165195 -24.28953 0.31988189,53.16986 -24.296512 0.31988189,
  53.193523 -24.320175 0.31988189,53.242545 -24.387648 0.31988189,
  53.280407 -24.461959 0.31988189,53.280408 -24.46196 0.31988189,
  53.280409 -24.46196 0.31988189,53.306181 -24.541279 0.31988189,
  53.319228 -24.623654 0.31988189,53.319228 -24.657117 0.31988189,
  53.320866 -24.665354 0.31988189,53.319227 -24.673592 0.31988189,
  53.319228 -24.707055 0.31988189,53.306181 -24.78943 0.31988189,
  53.280409 -24.868748 0.31988189,53.280408 -24.868749 0.31988189,
  53.280407 -24.868749 0.31988189,53.242545 -24.94306 0.31988189,
  53.193523 -25.010533 0.31988189,53.16986 -25.034196 0.31988189,
  53.165195 -25.041179 0.31988189,53.158212 -25.045845 0.31988189,
  53.134549 -25.069507 0.31988189,53.067076 -25.118529 0.31988189,
  52.992765 -25.156392 0.31988189,52.992765 -25.156393 0.31988189,
  52.992764 -25.156393 0.31988189,52.913445 -25.182165 0.31988189,
  52.831071 -25.195212 0.31988189,52.797607 -25.195212 0.31988189,
  52.78937 -25.19685 0.31988189,52.781132 -25.195212 0.31988189,
  52.747669 -25.195212 0.31988189,52.665295 -25.182165 0.31988189,
  52.585976 -25.156393 0.31988189,52.585975 -25.156393 0.31988189,
  52.585974 -25.156392 0.31988189,52.511664 -25.118529 0.31988189,
  52.444191 -25.069507 0.31988189,52.420528 -25.045844 0.31988189,
  52.413546 -25.041179 0.31988189,52.40888 -25.034196 0.31988189,
  52.385217 -25.010533 0.31988189,52.336195 -24.94306 0.31988189,
  52.298331 -24.868749 0.31988189,52.298332 -24.868749 0.31988189,
  52.298331 -24.868748 0.31988189,52.272559 -24.78943 0.31988189,
  52.259513 -24.707055 0.31988189,52.259511 -24.673591 0.31988189] }
 coordIndex [
  17,18,129,-1,129,18,19,-1,129,19,174,-1,174,19,0,-1,174,0,20,-1,20,0,1,-1,20,1,39,-1,39,1,2,-1,
  39,2,38,-1,38,2,3,-1,38,3,37,-1,37,3,4,-1,37,4,36,-1,36,4,5,-1,36,5,35,-1,35,5,6,-1,
  35,6,34,-1,34,6,7,-1,34,7,33,-1,33,7,8,-1,33,8,32,-1,32,8,9,-1,32,9,31,-1,31,9,90,-1,
  31,90,30,-1,30,90,190,-1,30,190,191,-1,90,10,134,-1,134,10,11,-1,134,11,133,-1,133,11,12,-1,133,12,132,-1,
  132,12,13,-1,132,13,131,-1,131,13,14,-1,131,14,130,-1,130,14,15,-1,130,15,129,-1,129,15,16,-1,129,16,17,-1,
  101,70,90,-1,90,70,71,-1,90,71,49,-1,49,71,72,-1,49,72,48,-1,48,72,73,-1,48,73,47,-1,47,73,74,-1,
  47,74,46,-1,46,74,75,-1,46,75,45,-1,45,75,76,-1,45,76,44,-1,44,76,77,-1,44,77,43,-1,43,77,78,-1,
  43,78,42,-1,42,78,79,-1,42,79,41,-1,41,79,60,-1,41,60,40,-1,40,60,106,-1,40,106,59,-1,59,106,80,-1,
  59,80,81,-1,59,81,58,-1,58,81,82,-1,58,82,57,-1,57,82,83,-1,57,83,56,-1,56,83,84,-1,56,84,55,-1,
  55,84,85,-1,55,85,54,-1,54,85,86,-1,54,86,53,-1,53,86,87,-1,53,87,52,-1,52,87,88,-1,52,88,51,-1,
  51,88,89,-1,51,89,50,-1,50,89,90,-1,50,90,49,-1,108,109,189,-1,189,109,110,-1,189,110,174,-1,174,110,111,-1,
  174,111,124,-1,124,111,112,-1,124,112,123,-1,123,112,113,-1,123,113,122,-1,122,113,114,-1,122,114,121,-1,121,114,115,-1,
  121,115,120,-1,120,115,140,-1,120,140,141,-1,115,116,156,-1,115,156,157,-1,115,157,158,-1,115,158,159,-1,115,159,140,-1,
  156,116,155,-1,155,116,117,-1,155,117,154,-1,154,117,118,-1,154,118,153,-1,153,118,119,-1,153,119,152,-1,152,119,100,-1,
  152,100,151,-1,151,100,90,-1,151,90,150,-1,150,90,135,-1,150,135,136,-1,189,175,188,-1,188,175,176,-1,188,176,187,-1,
  187,176,177,-1,187,177,186,-1,186,177,178,-1,186,178,185,-1,185,178,179,-1,185,179,184,-1,184,179,180,-1,184,180,183,-1,
  183,180,181,-1,183,181,182,-1,189,190,93,-1,189,93,94,-1,189,94,95,-1,189,95,96,-1,189,96,97,-1,189,97,98,-1,
  189,98,99,-1,189,99,106,-1,189,106,107,-1,189,107,108,-1,190,90,91,-1,190,91,92,-1,190,92,93,-1,174,124,125,-1,
  174,125,126,-1,174,126,127,-1,174,127,128,-1,174,128,129,-1,174,20,21,-1,174,21,22,-1,174,22,23,-1,174,23,24,-1,
  174,24,25,-1,174,25,26,-1,174,26,173,-1,29,30,191,-1,29,191,192,-1,29,192,193,-1,29,193,194,-1,29,194,195,-1,
  29,195,196,-1,29,196,28,-1,173,26,27,-1,173,27,28,-1,173,28,196,-1,173,196,161,-1,173,161,162,-1,173,162,163,-1,
  173,163,164,-1,173,164,165,-1,173,165,166,-1,173,166,167,-1,173,167,168,-1,173,168,169,-1,173,169,170,-1,173,170,171,-1,
  173,171,172,-1,106,60,61,-1,106,61,62,-1,106,62,63,-1,106,63,64,-1,106,64,65,-1,106,65,66,-1,106,66,105,-1,
  70,102,69,-1,69,102,103,-1,69,103,68,-1,68,103,104,-1,68,104,67,-1,67,104,105,-1,67,105,66,-1,120,141,142,-1,
  120,142,143,-1,120,143,144,-1,120,144,145,-1,120,145,146,-1,120,146,139,-1,150,136,149,-1,149,136,137,-1,149,137,148,-1,
  148,137,138,-1,148,138,147,-1,147,138,139,-1,147,139,146,-1,279,200,278,-1,278,200,160,-1,278,160,277,-1,277,160,274,-1,
  251,252,198,-1,198,252,253,-1,198,253,255,-1,240,241,242,-1,240,242,198,-1,240,198,199,-1,240,199,239,-1,199,160,214,-1,
  199,216,217,-1,199,217,218,-1,199,218,219,-1,199,219,220,-1,199,220,221,-1,199,221,222,-1,199,222,223,-1,199,223,224,-1,
  199,225,227,-1,199,227,228,-1,199,228,229,-1,199,229,230,-1,199,230,231,-1,199,231,232,-1,199,232,233,-1,199,233,234,-1,
  199,236,237,-1,199,237,238,-1,199,238,239,-1,210,211,212,-1,210,212,160,-1,210,160,208,-1,210,208,209,-1,203,206,160,-1,
  203,160,202,-1,202,160,200,-1,202,200,201,-1,207,208,160,-1,207,160,206,-1,213,214,160,-1,213,160,212,-1,198,242,243,-1,
  198,243,244,-1,198,246,247,-1,198,247,248,-1,198,248,249,-1,198,249,250,-1,198,250,251,-1,198,256,257,-1,198,257,258,-1,
  198,258,259,-1,198,259,260,-1,198,260,261,-1,198,261,262,-1,198,262,263,-1,198,263,264,-1,198,265,197,-1,269,270,268,-1,
  268,270,197,-1,268,197,267,-1,267,197,265,-1,274,161,273,-1,273,161,197,-1,273,197,272,-1,272,197,270,-1,272,270,271,-1,
  161,196,197,-1,161,274,160,-1,102,70,101,-1,80,106,99,-1,90,9,10,-1,90,134,135,-1,90,100,101,-1,189,174,175,-1]
  normalPerVertex TRUE
  normal DEF NORM_5 Normal { vector [
  0 0 1,0 0 1,
  0 0 1,0 0 1,
  0 0 1,0 0 1,
  0 0 1,0 0 1,
  0 0 1,0 0 1,
  0 0 1,0 0 1,
  0 0 1,0 0 1,
  0 0 1,0 0 1,
  0 0 1,0 0 1,
  0 0 1,0 0 1,
  0 0 1,0 0 1,
  0 0 1,0 0 1,
  0 0 1,0 0 1,
  0 0 1,0 0 1,
  0 0 1,0 0 1,
  0 0 1,0 0 1,
  0 0 1,0 0 1,
  0 0 1,0 0 1,
  0 0 1,0 0 1,
  0 0 1,0 0 1,
  0 0 1,0 0 1,
  0 0 1,0 0 1,
  0 0 1,0 0 1,
  0 0 1,0 0 1,
  0 0 1,0 0 1,
  0 0 1,0 0 1,
  0 0 1,0 0 1,
  0 0 1,0 0 1,
  0 0 1,0 0 1,
  0 0 1,0 0 1,
  0 0 1,0 0 1,
  0 0 1,0 0 1,
  0 0 1,0 0 1,
  0 0 1,0 0 1,
  0 0 1,0 0 1,
  0 0 1,0 0 1,
  0 0 1,0 0 1,
  0 0 1,0 0 1,
  0 0 1,0 0 1,
  0 0 1,0 0 1,
  0 0 1,0 0 1,
  0 0 1,0 0 1,
  0 0 1,0 0 1,
  0 0 1,0 0 1,
  0 0 1,0 0 1,
  0 0 1,0 0 1,
  0 0 1,0 0 1,
  0 0 1,0 0 1,
  0 0 1,0 0 1,
  0 0 1,0 0 1,
  0 0 1,0 0 1,
  0 0 1,0 0 1,
  0 0 1,0 0 1,
  0 0 1,0 0 1,
  0 0 1,0 0 1,
  0 0 1,0 0 1,
  0 0 1,0 0 1,
  0 0 1,0 0 1,
  0 0 1,0 0 1,
  0 0 1,0 0 1,
  0 0 1,0 0 1,
  0 0 1,0 0 1,
  0 0 1,0 0 1,
  0 0 1,0 0 1,
  0 0 1,0 0 1,
  0 0 1,0 0 1,
  0 0 1,0 0 1,
  0 0 1,0 0 1,
  0 0 1,0 0 1,
  0 0 1,0 0 1,
  0 0 1,0 0 1,
  0 0 1,0 0 1,
  0 0 1,0 0 1,
  0 0 1,0 0 1,
  0 0 1,0 0 1,
  0 0 1,0 0 1,
  0 0 1,0 0 1,
  0 0 1,0 0 1,
  0 0 1,0 0 1,
  0 0 1,0 0 1,
  0 0 1,0 0 1,
  0 0 1,0 0 1,
  0 0 1,0 0 1,
  0 0 1,0 0 1,
  0 0 1,0 0 1,
  0 0 1,0 0 1,
  0 0 1,0 0 1,
  0 0 1,0 0 1,
  0 0 1,0 0 1,
  0 0 1,0 0 1,
  0 0 1,0 0 1,
  0 0 1,0 0 1,
  0 0 1,0 0 1,
  0 0 1,0 0 1,
  0 0 1,0 0 1,
  0 0 1,0 0 1,
  0 0 1,0 0 1,
  0 0 1,0 0 1,
  0 0 1,0 0 1,
  0 0 1,0 0 1,
  0 0 1,0 0 1,
  0 0 1,0 0 1,
  0 0 1,0 0 1,
  0 0 1,0 0 1,
  0 0 1,0 0 1,
  0 0 1,0 0 1,
  0 0 1,0 0 1,
  0 0 1,0 0 1,
  0 0 1,0 0 1,
  0 0 1,0 0 1,
  0 0 1,0 0 1,
  0 0 1,0 0 1,
  0 0 1,0 0 1,
  0 0 1,0 0 1,
  0 0 1,0 0 1,
  0 0 1,0 0 1,
  0 0 1,0 0 1,
  0 0 1,0 0 1,
  0 0 1,0 0 1,
  0 0 1,0 0 1,
  0 0 1,0 0 1,
  0 0 1,0 0 1,
  0 0 1,0 0 1,
  0 0 1,0 0 1,
  0 0 1,0 0 1,
  0 0 1,0 0 1,
  0 0 1,0 0 1,
  0 0 1,0 0 1,
  0 0 1,0 0 1,
  0 0 1,0 0 1,
  0 0 1,0 0 1,
  0 0 1,0 0 1,
  0 0 1,0 0 1,
  0 0 1,0 0 1,
  0 0 1,0 0 1,
  0 0 1,0 0 1,
  0 0 1,0 0 1,
  0 0 1,0 0 1,
  0 0 1,0 0 1,
  0 0 1,0 0 1] }
}
}
] }
DEF TXFM_6 Transform {
  center 0 0 0
  rotation 0 0 1 0
  scale 1 1 1
  scaleOrientation 0 0 1 0
  translation 0 0 0
 children [
DEF SHAPE_6 Shape {
 appearance DEF APP_5 Appearance {
  material Material {
   ambientIntensity 1
   diffuseColor 0.078431375 0.2 0.14117648
   emissiveColor 0 0 0
   shininess 0.30000001
   specularColor 0.35490197 0.44 0.39882353
   transparency 0.17
} }
 geometry DEF FACE_6 IndexedFaceSet {
  coord DEF COORD_6 Coordinate { point [
  51.582677 -23.287402 -0.31988189,51.240157 -23.287402 -0.31988189,
  50.846457 -23.287402 -0.31988189,50.846457 -24.623654 -0.31988189,
  50.846457 -32.106299 -0.31988189,51.240157 -32.106299 -0.31988189,
  56.948819 -32.106299 -0.31988189,56.974624 -32.105457 -0.31988189,
  57.024475 -32.0921 -0.31988189,57.069171 -32.066294 -0.31988189,
  57.105665 -32.029801 -0.31988189,57.13147 -31.985105 -0.31988189,
  57.144827 -31.935254 -0.31988189,57.145669 -31.909449 -0.31988189,
  57.145669 -28.484252 -0.31988189,57.144827 -28.458447 -0.31988189,
  57.13147 -28.408596 -0.31988189,57.105665 -28.3639 -0.31988189,
  57.069171 -28.327406 -0.31988189,57.024475 -28.301601 -0.31988189,
  56.974624 -28.288244 -0.31988189,56.948819 -28.287402 -0.31988189,
  55.137795 -28.287402 -0.31988189,54.625984 -27.775591 -0.31988189,
  54.035433 -27.775591 -0.31988189,54.035433 -28.011811 -0.31988189,
  53.562992 -28.011811 -0.31988189,53.326772 -27.775591 -0.31988189,
  51.240157 -27.775591 -0.31988189,51.240157 -26.043307 -0.31988189,
  54.338583 -26.043307 -0.31988189,54.338583 -23.287402 -0.31988189,
  52.257874 -24.665354 -0.31988189,52.259512 -24.657116 -0.31988189,
  52.259513 -24.623654 -0.31988189,52.272559 -24.541279 -0.31988189,
  52.298331 -24.46196 -0.31988189,52.298332 -24.46196 -0.31988189,
  52.298331 -24.461959 -0.31988189,52.336195 -24.387648 -0.31988189,
  52.385217 -24.320175 -0.31988189,52.40888 -24.296513 -0.31988189,
  52.413546 -24.28953 -0.31988189,52.420528 -24.284864 -0.31988189,
  52.444191 -24.261202 -0.31988189,52.511664 -24.21218 -0.31988189,
  52.585974 -24.174316 -0.31988189,52.585975 -24.174316 -0.31988189,
  52.585976 -24.174316 -0.31988189,52.665295 -24.148544 -0.31988189,
  52.747669 -24.135497 -0.31988189,52.781132 -24.135497 -0.31988189,
  52.78937 -24.133858 -0.31988189,52.797607 -24.135497 -0.31988189,
  52.831071 -24.135497 -0.31988189,52.913445 -24.148544 -0.31988189,
  52.992764 -24.174316 -0.31988189,52.992765 -24.174316 -0.31988189,
  52.992765 -24.174316 -0.31988189,53.067076 -24.21218 -0.31988189,
  53.134549 -24.261202 -0.31988189,53.158212 -24.284864 -0.31988189,
  53.165195 -24.28953 -0.31988189,53.16986 -24.296512 -0.31988189,
  53.193523 -24.320175 -0.31988189,53.242545 -24.387648 -0.31988189,
  53.280407 -24.461959 -0.31988189,53.280408 -24.46196 -0.31988189,
  53.280409 -24.46196 -0.31988189,53.306181 -24.541279 -0.31988189,
  53.319228 -24.623654 -0.31988189,53.319228 -24.657117 -0.31988189,
  53.320866 -24.665354 -0.31988189,53.319227 -24.673592 -0.31988189,
  53.319228 -24.707055 -0.31988189,53.306181 -24.78943 -0.31988189,
  53.280409 -24.868748 -0.31988189,53.280408 -24.868749 -0.31988189,
  53.280407 -24.868749 -0.31988189,53.242545 -24.94306 -0.31988189,
  53.193523 -25.010533 -0.31988189,53.16986 -25.034196 -0.31988189,
  53.165195 -25.041179 -0.31988189,53.158212 -25.045845 -0.31988189,
  53.134549 -25.069507 -0.31988189,53.067076 -25.118529 -0.31988189,
  52.992765 -25.156392 -0.31988189,52.992765 -25.156393 -0.31988189,
  52.992764 -25.156393 -0.31988189,52.913445 -25.182165 -0.31988189,
  52.831071 -25.195212 -0.31988189,52.797607 -25.195212 -0.31988189,
  52.78937 -25.19685 -0.31988189,52.781132 -25.195212 -0.31988189,
  52.747669 -25.195212 -0.31988189,52.665295 -25.182165 -0.31988189,
  52.585976 -25.156393 -0.31988189,52.585975 -25.156393 -0.31988189,
  52.585974 -25.156392 -0.31988189,52.511664 -25.118529 -0.31988189,
  52.444191 -25.069507 -0.31988189,52.420528 -25.045844 -0.31988189,
  52.413546 -25.041179 -0.31988189,52.40888 -25.034196 -0.31988189,
  52.385217 -25.010533 -0.31988189,52.336195 -24.94306 -0.31988189,
  52.298331 -24.868749 -0.31988189,52.298332 -24.868749 -0.31988189,
  52.298331 -24.868748 -0.31988189,52.272559 -24.78943 -0.31988189,
  52.259513 -24.707055 -0.31988189,52.259511 -24.673591 -0.31988189] }
 coordIndex [
  6,22,21,-1,6,21,7,-1,7,21,20,-1,7,20,8,-1,8,20,19,-1,8,19,9,-1,9,19,18,-1,9,18,10,-1,
  10,18,17,-1,10,17,11,-1,11,17,16,-1,11,16,12,-1,12,16,15,-1,12,15,13,-1,13,15,14,-1,22,6,23,-1,
  23,6,24,-1,24,6,25,-1,25,6,26,-1,26,6,27,-1,27,6,28,-1,28,6,5,-1,32,111,110,-1,32,110,0,-1,
  0,110,109,-1,0,109,106,-1,84,83,30,-1,84,30,85,-1,85,30,87,-1,73,72,74,-1,74,72,30,-1,30,72,31,-1,
  31,72,71,-1,0,31,46,-1,48,31,49,-1,49,31,50,-1,50,31,51,-1,51,31,52,-1,52,31,53,-1,53,31,54,-1,
  54,31,55,-1,55,31,56,-1,57,31,59,-1,59,31,60,-1,60,31,61,-1,61,31,62,-1,62,31,63,-1,63,31,64,-1,
  64,31,65,-1,65,31,66,-1,68,31,69,-1,69,31,70,-1,70,31,71,-1,43,42,44,-1,44,42,0,-1,0,42,40,-1,
  40,42,41,-1,38,35,0,-1,0,35,34,-1,0,34,32,-1,32,34,33,-1,40,39,0,-1,0,39,38,-1,46,45,0,-1,
  0,45,44,-1,74,30,75,-1,75,30,76,-1,78,30,79,-1,79,30,80,-1,80,30,81,-1,81,30,82,-1,82,30,83,-1,
  88,30,89,-1,89,30,90,-1,90,30,91,-1,91,30,92,-1,92,30,93,-1,93,30,94,-1,94,30,95,-1,95,30,96,-1,
  97,30,29,-1,102,101,100,-1,102,100,29,-1,29,100,99,-1,29,99,97,-1,1,106,105,-1,1,105,29,-1,29,105,104,-1,
  29,104,102,-1,102,104,103,-1,2,1,5,-1,5,1,28,-1,28,1,29,-1,4,3,5,-1,5,3,2,-1,106,1,0,-1]
  normalPerVertex TRUE
  normal DEF NORM_6 Normal { vector [
  0 0 -1,0 0 -1,
  0 0 -1,0 0 -1,
  0 0 -1,0 0 -1,
  0 0 -1,0 0 -1,
  0 0 -1,0 0 -1,
  0 0 -1,0 0 -1,
  0 0 -1,0 0 -1,
  0 0 -1,0 0 -1,
  0 0 -1,0 0 -1,
  0 0 -1,0 0 -1,
  0 0 -1,0 0 -1,
  0 0 -1,0 0 -1,
  0 0 -1,0 0 -1,
  0 0 -1,0 0 -1,
  0 0 -1,0 0 -1,
  0 0 -1,0 0 -1,
  0 0 -1,0 0 -1,
  0 0 -1,0 0 -1,
  0 0 -1,0 0 -1,
  0 0 -1,0 0 -1,
  0 0 -1,0 0 -1,
  0 0 -1,0 0 -1,
  0 0 -1,0 0 -1,
  0 0 -1,0 0 -1,
  0 0 -1,0 0 -1,
  0 0 -1,0 0 -1,
  0 0 -1,0 0 -1,
  0 0 -1,0 0 -1,
  0 0 -1,0 0 -1,
  0 0 -1,0 0 -1,
  0 0 -1,0 0 -1,
  0 0 -1,0 0 -1,
  0 0 -1,0 0 -1,
  0 0 -1,0 0 -1,
  0 0 -1,0 0 -1,
  0 0 -1,0 0 -1,
  0 0 -1,0 0 -1,
  0 0 -1,0 0 -1,
  0 0 -1,0 0 -1,
  0 0 -1,0 0 -1,
  0 0 -1,0 0 -1,
  0 0 -1,0 0 -1,
  0 0 -1,0 0 -1,
  0 0 -1,0 0 -1,
  0 0 -1,0 0 -1,
  0 0 -1,0 0 -1,
  0 0 -1,0 0 -1,
  0 0 -1,0 0 -1,
  0 0 -1,0 0 -1,
  0 0 -1,0 0 -1,
  0 0 -1,0 0 -1,
  0 0 -1,0 0 -1,
  0 0 -1,0 0 -1,
  0 0 -1,0 0 -1,
  0 0 -1,0 0 -1,
  0 0 -1,0 0 -1] }
}
}
] }
] }
